<?xml version="1.0" encoding="utf-8"?>
<!-- Generator: Adobe Illustrator 27.5.0, SVG Export Plug-In . SVG Version: 6.00 Build 0)  -->
<svg version="1.1" xmlns="http://www.w3.org/2000/svg" xmlns:xlink="http://www.w3.org/1999/xlink" x="0px" y="0px"
	 viewBox="0 0 800 800" style="enable-background:new 0 0 800 800;" xml:space="preserve">
<g id="Background">
	<radialGradient id="SVGID_1_" cx="400" cy="400" r="681.98" gradientUnits="userSpaceOnUse">
		<stop  offset="0.3158" style="stop-color:#FFFFFF"/>
		<stop  offset="1" style="stop-color:#A2B6C1"/>
	</radialGradient>
	<rect style="fill:url(#SVGID_1_);" width="800" height="800"/>
</g>
<g id="Objects">
	<g>
		<g>
			<g>
				<g>
					<g>
						<path style="fill-rule:evenodd;clip-rule:evenodd;fill:#91A2AA;" d="M292.89,760.174c0.381,0,0.728-0.104,1.041-0.301
							c0.318-0.199,0.57-0.502,0.76-0.916c0.188-0.416,0.281-0.928,0.281-1.543c0-0.584-0.094-1.082-0.281-1.498
							c-0.189-0.42-0.442-0.74-0.77-0.955c-0.315-0.223-0.656-0.328-1.031-0.332v-1.572c0.354,0.053,0.668,0.145,0.943,0.279
							c0.43,0.215,0.85,0.549,1.26,0.994v-3.215c0-0.449,0.088-0.785,0.268-1.013c0.179-0.233,0.434-0.343,0.761-0.343
							c0.332,0,0.585,0.105,0.761,0.318c0.182,0.209,0.271,0.516,0.271,0.926v9.607c0,0.414-0.096,0.727-0.286,0.932
							c-0.196,0.209-0.442,0.31-0.746,0.31c-0.297,0-0.541-0.102-0.737-0.32c-0.193-0.213-0.291-0.525-0.291-0.922v-0.218
							c-0.293,0.339-0.582,0.608-0.865,0.819c-0.285,0.213-0.592,0.369-0.926,0.481c-0.133,0.043-0.269,0.078-0.412,0.105V760.174z
							 M290.81,757.414c0,0.586,0.09,1.09,0.273,1.508c0.184,0.414,0.438,0.723,0.754,0.934c0.319,0.213,0.668,0.318,1.047,0.318
							h0.006v1.625c-0.215,0.035-0.44,0.055-0.676,0.055c-0.522,0-1.006-0.109-1.449-0.328c-0.44-0.221-0.828-0.535-1.154-0.947
							c-0.323-0.404-0.57-0.889-0.737-1.443c-0.17-0.551-0.252-1.15-0.252-1.797c0-1.359,0.334-2.42,0.998-3.182
							c0.666-0.76,1.541-1.141,2.627-1.141c0.228,0,0.44,0.014,0.643,0.041v1.572h-0.022c-0.399,0-0.757,0.109-1.071,0.334
							c-0.311,0.229-0.554,0.556-0.727,0.979C290.894,756.361,290.81,756.856,290.81,757.414"/>
						<path style="fill-rule:evenodd;clip-rule:evenodd;fill:#91A2AA;" d="M303.133,756.725h1.976
							c-0.053-0.742-0.256-1.301-0.605-1.668c-0.348-0.369-0.805-0.557-1.37-0.557v-1.516h0.067c0.853,0,1.582,0.176,2.189,0.541
							c0.612,0.357,1.067,0.82,1.375,1.389c0.3,0.566,0.448,1.148,0.448,1.74c0,0.545-0.157,0.904-0.469,1.065
							c-0.317,0.164-0.756,0.244-1.324,0.244h-2.286V756.725z M303.133,761.852v-1.445c0.056,0.002,0.108,0.004,0.164,0.004
							c0.258,0,0.497-0.029,0.717-0.09c0.212-0.059,0.419-0.156,0.621-0.287c0.205-0.133,0.39-0.271,0.561-0.42
							c0.168-0.148,0.389-0.35,0.66-0.603c0.112-0.098,0.272-0.148,0.479-0.148c0.223,0,0.402,0.063,0.543,0.186
							c0.137,0.121,0.207,0.297,0.207,0.518c0,0.197-0.075,0.426-0.229,0.691c-0.156,0.264-0.388,0.517-0.701,0.758
							c-0.309,0.242-0.701,0.441-1.172,0.605c-0.472,0.156-1.011,0.234-1.625,0.234
							C303.282,761.854,303.206,761.854,303.133,761.852 M301.159,756.725h1.974v1.238h-1.974c0.002,0.494,0.105,0.93,0.297,1.305
							c0.195,0.381,0.453,0.664,0.777,0.855c0.276,0.166,0.574,0.26,0.899,0.283v1.445c-1.289-0.043-2.304-0.441-3.037-1.195
							c-0.778-0.797-1.165-1.877-1.165-3.242c0-0.647,0.094-1.242,0.288-1.797c0.192-0.547,0.472-1.021,0.839-1.414
							c0.366-0.393,0.816-0.695,1.354-0.904c0.521-0.205,1.095-0.309,1.722-0.314v1.516h-0.005c-0.543,0-0.989,0.185-1.336,0.557
							C301.444,755.435,301.229,755.99,301.159,756.725"/>
						<path style="fill-rule:evenodd;clip-rule:evenodd;fill:#91A2AA;" d="M316.061,759.01c0,0.598-0.145,1.113-0.436,1.539
							c-0.295,0.432-0.726,0.756-1.297,0.977c-0.571,0.219-1.271,0.328-2.086,0.328c-0.78,0-1.453-0.114-2.013-0.356
							c-0.563-0.238-0.971-0.543-1.237-0.898c-0.265-0.357-0.399-0.719-0.399-1.082c0-0.24,0.084-0.443,0.256-0.612
							c0.172-0.173,0.387-0.259,0.647-0.259c0.228,0,0.401,0.059,0.526,0.17c0.121,0.107,0.24,0.268,0.354,0.469
							c0.221,0.389,0.489,0.68,0.797,0.867c0.313,0.195,0.739,0.289,1.274,0.289c0.435,0,0.793-0.098,1.075-0.289
							c0.279-0.193,0.418-0.416,0.418-0.666c0-0.383-0.148-0.663-0.434-0.84c-0.291-0.172-0.769-0.344-1.435-0.502
							c-0.75-0.185-1.36-0.377-1.83-0.586c-0.47-0.205-0.845-0.473-1.127-0.809c-0.283-0.338-0.425-0.744-0.425-1.238
							c0-0.438,0.129-0.848,0.392-1.24c0.259-0.387,0.645-0.691,1.151-0.926c0.509-0.231,1.123-0.346,1.839-0.346
							c0.563,0,1.071,0.057,1.521,0.172c0.449,0.119,0.824,0.276,1.125,0.475c0.301,0.195,0.53,0.414,0.684,0.654
							c0.158,0.238,0.238,0.473,0.238,0.699c0,0.25-0.084,0.457-0.25,0.614c-0.168,0.157-0.406,0.241-0.715,0.241
							c-0.224,0-0.414-0.065-0.572-0.19c-0.155-0.127-0.336-0.318-0.537-0.576c-0.164-0.213-0.358-0.385-0.582-0.514
							c-0.225-0.125-0.526-0.191-0.911-0.191c-0.394,0-0.72,0.09-0.979,0.256c-0.261,0.166-0.392,0.375-0.392,0.621
							c0,0.232,0.095,0.42,0.289,0.564c0.19,0.147,0.444,0.27,0.772,0.367c0.322,0.092,0.772,0.207,1.338,0.35
							c0.678,0.166,1.229,0.355,1.658,0.588c0.428,0.23,0.754,0.498,0.973,0.813C315.953,758.254,316.061,758.611,316.061,759.01"/>
						<path style="fill-rule:evenodd;clip-rule:evenodd;fill:#91A2AA;" d="M320.085,754.232v6.299c0,0.438-0.103,0.766-0.312,0.99
							c-0.205,0.223-0.472,0.332-0.787,0.332c-0.323,0-0.583-0.111-0.78-0.34c-0.201-0.23-0.299-0.559-0.299-0.982V754.3
							c0-0.429,0.098-0.757,0.299-0.972c0.197-0.219,0.457-0.328,0.78-0.328c0.315,0,0.582,0.109,0.787,0.328
							C319.982,753.543,320.085,753.846,320.085,754.232 M319.007,751.986c-0.305,0-0.562-0.096-0.776-0.279
							c-0.218-0.188-0.323-0.451-0.323-0.789c0-0.311,0.109-0.566,0.33-0.766c0.221-0.201,0.477-0.297,0.77-0.297
							c0.281,0,0.531,0.088,0.752,0.269c0.218,0.184,0.326,0.447,0.326,0.793c0,0.334-0.107,0.594-0.318,0.785
							C319.552,751.889,319.3,751.986,319.007,751.986"/>
						<path style="fill-rule:evenodd;clip-rule:evenodd;fill:#91A2AA;" d="M326.13,760.037c0.355-0.004,0.689-0.102,1.004-0.289
							c0.322-0.199,0.584-0.49,0.787-0.881c0.205-0.393,0.303-0.867,0.303-1.422c0-0.893-0.195-1.58-0.586-2.078
							c-0.385-0.485-0.887-0.73-1.508-0.738v-1.559c0.334,0.057,0.64,0.156,0.912,0.297c0.451,0.236,0.871,0.611,1.264,1.115v-0.295
							c0-0.377,0.091-0.672,0.277-0.877c0.186-0.209,0.426-0.31,0.715-0.31c0.424,0,0.701,0.139,0.84,0.41
							c0.139,0.269,0.207,0.666,0.207,1.185v6.328c0,0.721-0.073,1.346-0.23,1.867c-0.152,0.521-0.398,0.951-0.742,1.293
							c-0.34,0.336-0.785,0.594-1.336,0.757c-0.519,0.151-1.152,0.235-1.906,0.243v-1.514c0.478-0.018,0.855-0.094,1.133-0.234
							c0.313-0.156,0.525-0.375,0.654-0.656c0.127-0.287,0.195-0.589,0.217-0.906c0.022-0.322,0.041-0.838,0.052-1.553
							c-0.339,0.465-0.725,0.826-1.164,1.068c-0.267,0.148-0.565,0.252-0.892,0.31V760.037z M324.034,757.357
							c0,0.881,0.194,1.551,0.578,2.002c0.387,0.447,0.885,0.678,1.498,0.678h0.02v1.563c-0.213,0.037-0.436,0.055-0.676,0.055
							c-0.728,0-1.365-0.185-1.912-0.559c-0.543-0.369-0.963-0.891-1.254-1.564c-0.295-0.67-0.441-1.443-0.441-2.324
							c0-0.648,0.093-1.241,0.268-1.766c0.18-0.527,0.432-0.973,0.762-1.334c0.33-0.365,0.711-0.633,1.143-0.818
							c0.429-0.18,0.903-0.273,1.42-0.273c0.241,0,0.474,0.018,0.69,0.055v1.559h-0.037c-0.623,0-1.121,0.232-1.496,0.709
							C324.222,755.809,324.034,756.479,324.034,757.357 M326.13,763.57v1.514l-0.145,0.002c-0.75,0-1.424-0.103-2.013-0.316
							c-0.592-0.207-1.047-0.478-1.366-0.81c-0.317-0.336-0.476-0.676-0.476-1.027c0-0.266,0.088-0.48,0.271-0.644
							c0.179-0.176,0.396-0.258,0.651-0.258c0.32,0,0.6,0.141,0.841,0.422c0.114,0.145,0.233,0.293,0.36,0.438
							c0.127,0.145,0.265,0.272,0.418,0.377c0.148,0.102,0.332,0.178,0.545,0.228c0.211,0.051,0.457,0.078,0.734,0.078
							C326.011,763.572,326.071,763.572,326.13,763.57"/>
						<path style="fill-rule:evenodd;clip-rule:evenodd;fill:#91A2AA;" d="M334.528,754.203v0.266
							c0.383-0.508,0.804-0.877,1.256-1.113c0.453-0.238,0.979-0.356,1.568-0.356c0.576,0,1.088,0.123,1.539,0.371
							c0.451,0.252,0.789,0.607,1.014,1.062c0.143,0.271,0.236,0.56,0.279,0.86c0.043,0.313,0.063,0.705,0.063,1.181v4.058
							c0,0.438-0.099,0.766-0.296,0.99c-0.2,0.223-0.463,0.332-0.78,0.332c-0.325,0-0.588-0.111-0.789-0.34
							c-0.202-0.23-0.303-0.559-0.303-0.982v-3.633c0-0.716-0.101-1.266-0.3-1.648c-0.198-0.379-0.598-0.568-1.194-0.568
							c-0.388,0-0.741,0.117-1.061,0.348c-0.319,0.227-0.553,0.547-0.701,0.953c-0.105,0.325-0.162,0.934-0.162,1.82v2.729
							c0,0.439-0.102,0.773-0.305,0.994c-0.207,0.219-0.469,0.328-0.795,0.328c-0.311,0-0.572-0.111-0.772-0.34
							c-0.203-0.23-0.304-0.559-0.304-0.982v-6.299c0-0.412,0.09-0.725,0.273-0.926c0.18-0.205,0.424-0.307,0.739-0.307
							c0.19,0,0.364,0.043,0.517,0.133c0.155,0.091,0.28,0.227,0.373,0.41C334.481,753.721,334.528,753.941,334.528,754.203"/>
						<path style="fill-rule:evenodd;clip-rule:evenodd;fill:#91A2AA;" d="M346.215,756.725h1.974
							c-0.055-0.742-0.256-1.301-0.604-1.668c-0.345-0.369-0.806-0.557-1.369-0.557v-1.516h0.067c0.851,0,1.578,0.176,2.188,0.541
							c0.609,0.357,1.066,0.82,1.372,1.389c0.3,0.566,0.453,1.148,0.453,1.74c0,0.545-0.159,0.904-0.472,1.065
							c-0.313,0.164-0.754,0.244-1.323,0.244h-2.285V756.725z M346.215,761.852v-1.445c0.052,0.002,0.107,0.004,0.164,0.004
							c0.259,0,0.496-0.029,0.713-0.09c0.216-0.059,0.421-0.156,0.626-0.287c0.204-0.133,0.389-0.271,0.557-0.42
							c0.172-0.148,0.394-0.35,0.662-0.603c0.113-0.098,0.274-0.148,0.479-0.148c0.224,0,0.403,0.063,0.543,0.186
							c0.138,0.121,0.211,0.297,0.211,0.518c0,0.197-0.078,0.426-0.235,0.691c-0.154,0.264-0.386,0.517-0.699,0.758
							c-0.307,0.242-0.699,0.441-1.172,0.605c-0.469,0.156-1.012,0.234-1.623,0.234
							C346.364,761.854,346.289,761.854,346.215,761.852 M344.237,756.725h1.977v1.238h-1.977c0.006,0.494,0.105,0.93,0.299,1.305
							c0.193,0.381,0.453,0.664,0.771,0.855c0.28,0.166,0.58,0.26,0.907,0.283v1.445c-1.291-0.043-2.304-0.441-3.038-1.195
							c-0.775-0.797-1.166-1.877-1.166-3.242c0-0.647,0.1-1.242,0.288-1.797c0.19-0.547,0.47-1.021,0.839-1.414
							c0.37-0.393,0.816-0.695,1.355-0.904c0.517-0.205,1.091-0.307,1.722-0.314v1.516h-0.006c-0.543,0-0.989,0.185-1.339,0.557
							C344.524,755.435,344.313,755.99,344.237,756.725"/>
						<path style="fill-rule:evenodd;clip-rule:evenodd;fill:#91A2AA;" d="M355.897,760.174c0.379-0.002,0.725-0.104,1.041-0.301
							c0.314-0.199,0.568-0.502,0.756-0.916c0.191-0.416,0.285-0.928,0.285-1.543c0-0.584-0.094-1.082-0.285-1.498
							c-0.188-0.42-0.442-0.74-0.766-0.955c-0.313-0.223-0.656-0.328-1.031-0.332v-1.572c0.355,0.053,0.666,0.145,0.938,0.279
							c0.432,0.215,0.853,0.549,1.262,0.994v-3.215c0-0.449,0.092-0.785,0.27-1.013c0.178-0.233,0.43-0.343,0.762-0.343
							c0.329,0,0.582,0.105,0.762,0.318c0.178,0.209,0.268,0.516,0.268,0.926v9.607c0,0.414-0.096,0.727-0.286,0.932
							c-0.192,0.209-0.442,0.31-0.743,0.31c-0.298,0-0.544-0.102-0.738-0.32c-0.195-0.213-0.293-0.525-0.293-0.922v-0.218
							c-0.293,0.339-0.58,0.608-0.865,0.819c-0.285,0.213-0.594,0.369-0.924,0.481c-0.133,0.043-0.267,0.078-0.41,0.105V760.174z
							 M353.813,757.414c0,0.586,0.092,1.09,0.275,1.508c0.185,0.414,0.435,0.723,0.752,0.934c0.321,0.213,0.67,0.318,1.045,0.318
							h0.012v1.625c-0.217,0.035-0.442,0.055-0.68,0.055c-0.52,0-1.006-0.109-1.449-0.328c-0.442-0.221-0.828-0.535-1.15-0.947
							c-0.328-0.404-0.573-0.889-0.739-1.443c-0.17-0.551-0.254-1.15-0.254-1.797c0-1.359,0.333-2.42,0.999-3.182
							c0.666-0.76,1.541-1.141,2.626-1.141c0.226,0,0.443,0.014,0.646,0.041v1.572h-0.026c-0.399,0-0.755,0.109-1.069,0.334
							c-0.314,0.229-0.556,0.556-0.73,0.979C353.897,756.361,353.813,756.856,353.813,757.414"/>
						<path style="fill-rule:evenodd;clip-rule:evenodd;fill:#91A2AA;" d="M370.626,760.174h0.07c0.549,0,1.022-0.242,1.418-0.715
							c0.396-0.477,0.594-1.158,0.594-2.045c0-0.58-0.08-1.07-0.246-1.488c-0.166-0.414-0.399-0.734-0.701-0.963
							c-0.303-0.225-0.659-0.334-1.064-0.334c-0.023,0-0.045,0-0.07,0.002v-1.572c0.203-0.029,0.418-0.043,0.648-0.043
							c0.721,0,1.357,0.174,1.9,0.514c0.548,0.341,0.97,0.838,1.27,1.492c0.301,0.648,0.45,1.426,0.45,2.316
							c0,0.662-0.084,1.27-0.248,1.818c-0.168,0.551-0.413,1.027-0.733,1.43c-0.32,0.404-0.705,0.719-1.16,0.94
							c-0.453,0.219-0.955,0.328-1.504,0.328c-0.215,0-0.424-0.016-0.623-0.047V760.174z M368.544,757.475
							c0,0.867,0.199,1.535,0.592,2c0.386,0.449,0.88,0.68,1.49,0.699v1.633c-0.108-0.021-0.219-0.043-0.322-0.068
							c-0.295-0.084-0.549-0.188-0.754-0.32c-0.207-0.127-0.385-0.26-0.532-0.402c-0.145-0.137-0.339-0.344-0.575-0.623v0.219
							c0,0.408-0.1,0.719-0.298,0.932c-0.196,0.209-0.444,0.31-0.748,0.31c-0.31,0-0.558-0.102-0.741-0.31
							c-0.183-0.213-0.275-0.524-0.275-0.932v-9.516c0-0.435,0.093-0.771,0.268-0.996c0.179-0.231,0.425-0.34,0.748-0.34
							c0.334,0,0.591,0.107,0.772,0.324c0.181,0.217,0.273,0.52,0.273,0.92v3.326c0.409-0.426,0.825-0.75,1.25-0.975
							c0.272-0.145,0.582-0.244,0.934-0.297v1.572c-0.385,0.01-0.728,0.123-1.035,0.332c-0.325,0.229-0.584,0.555-0.768,0.984
							C368.636,756.379,368.544,756.887,368.544,757.475"/>
						<path style="fill-rule:evenodd;clip-rule:evenodd;fill:#91A2AA;" d="M378.438,762.129l0.199-0.486l-2.681-6.752
							c-0.164-0.391-0.247-0.674-0.247-0.846c0-0.184,0.045-0.365,0.145-0.521c0.094-0.161,0.226-0.286,0.393-0.38
							c0.168-0.098,0.343-0.144,0.521-0.144c0.316,0,0.551,0.1,0.711,0.299c0.16,0.197,0.303,0.482,0.426,0.857l1.845,5.361
							l1.746-4.988c0.136-0.404,0.263-0.719,0.373-0.949c0.112-0.228,0.23-0.381,0.357-0.461c0.123-0.08,0.301-0.119,0.529-0.119
							c0.164,0,0.323,0.043,0.475,0.133c0.152,0.088,0.268,0.203,0.351,0.354c0.084,0.148,0.123,0.305,0.123,0.469
							c-0.018,0.098-0.056,0.244-0.103,0.43c-0.047,0.189-0.107,0.379-0.178,0.568l-2.838,7.436
							c-0.246,0.658-0.484,1.168-0.721,1.539c-0.23,0.375-0.538,0.66-0.928,0.859c-0.385,0.199-0.906,0.299-1.559,0.299
							c-0.639,0-1.117-0.072-1.438-0.207c-0.317-0.135-0.477-0.389-0.477-0.756c0-0.252,0.075-0.441,0.225-0.582
							c0.154-0.139,0.377-0.201,0.676-0.201c0.113,0,0.23,0.016,0.345,0.049c0.136,0.029,0.255,0.045,0.356,0.045
							c0.25,0,0.447-0.039,0.588-0.111c0.147-0.07,0.275-0.203,0.39-0.387C378.157,762.754,378.293,762.482,378.438,762.129"/>
						<path style="fill-rule:evenodd;clip-rule:evenodd;fill:#91A2AA;" d="M418.75,753.191h0.522v-0.656
							c0-0.682,0.086-1.221,0.258-1.623c0.17-0.398,0.467-0.695,0.877-0.877c0.416-0.186,0.978-0.275,1.697-0.275
							c1.268,0,1.909,0.31,1.909,0.934c0,0.199-0.069,0.371-0.203,0.517c-0.133,0.145-0.286,0.219-0.471,0.219
							c-0.086,0-0.233-0.018-0.438-0.051c-0.207-0.031-0.381-0.047-0.526-0.047c-0.394,0-0.646,0.115-0.759,0.348
							c-0.11,0.229-0.17,0.563-0.17,0.988v0.523h0.537c0.83,0,1.246,0.25,1.246,0.748c0,0.355-0.111,0.584-0.328,0.678
							c-0.224,0.098-0.529,0.146-0.918,0.146h-0.537v5.768c0,0.43-0.103,0.76-0.304,0.988c-0.205,0.225-0.469,0.334-0.795,0.334
							c-0.308,0-0.565-0.109-0.771-0.334c-0.205-0.228-0.305-0.559-0.305-0.988v-5.768h-0.603c-0.324,0-0.572-0.074-0.746-0.225
							c-0.177-0.145-0.267-0.332-0.267-0.566C417.657,753.451,418.022,753.191,418.75,753.191"/>
						<path style="fill-rule:evenodd;clip-rule:evenodd;fill:#91A2AA;" d="M426.532,758.711v1.82c0,0.439-0.102,0.773-0.311,0.993
							c-0.207,0.22-0.468,0.329-0.793,0.329c-0.308,0-0.568-0.109-0.768-0.332c-0.205-0.225-0.308-0.553-0.308-0.99v-6.063
							c0-0.982,0.357-1.469,1.062-1.469c0.36,0,0.625,0.115,0.782,0.342c0.164,0.227,0.248,0.566,0.267,1.012
							c0.259-0.445,0.526-0.785,0.8-1.012c0.276-0.227,0.641-0.342,1.098-0.342c0.457,0,0.899,0.115,1.332,0.342
							c0.435,0.227,0.646,0.531,0.646,0.908c0,0.268-0.088,0.486-0.272,0.66c-0.187,0.172-0.381,0.258-0.597,0.258
							c-0.079,0-0.275-0.049-0.579-0.147c-0.304-0.1-0.574-0.15-0.811-0.15c-0.318,0-0.578,0.09-0.777,0.256
							c-0.204,0.164-0.362,0.414-0.473,0.742c-0.113,0.334-0.189,0.725-0.233,1.182
							C426.554,757.504,426.532,758.057,426.532,758.711"/>
						<path style="fill-rule:evenodd;clip-rule:evenodd;fill:#91A2AA;" d="M434.916,756.725h1.974
							c-0.058-0.742-0.254-1.301-0.6-1.668c-0.349-0.369-0.808-0.557-1.373-0.557v-1.516h0.068c0.848,0,1.577,0.176,2.187,0.541
							c0.606,0.357,1.067,0.82,1.37,1.389c0.302,0.566,0.457,1.148,0.457,1.74c0,0.545-0.155,0.904-0.471,1.065
							c-0.313,0.164-0.757,0.244-1.326,0.244h-2.285V756.725z M434.916,761.852v-1.445c0.052,0.002,0.108,0.004,0.164,0.004
							c0.261,0,0.5-0.029,0.716-0.09c0.211-0.059,0.422-0.156,0.622-0.287c0.203-0.133,0.39-0.271,0.561-0.42
							c0.168-0.148,0.393-0.35,0.656-0.603c0.117-0.098,0.28-0.148,0.485-0.148c0.22,0,0.401,0.063,0.541,0.186
							c0.136,0.121,0.205,0.297,0.205,0.518c0,0.197-0.074,0.426-0.229,0.691c-0.156,0.264-0.388,0.517-0.697,0.758
							c-0.313,0.242-0.702,0.441-1.174,0.605c-0.472,0.156-1.012,0.234-1.623,0.234
							C435.065,761.854,434.992,761.854,434.916,761.852 M432.94,756.725h1.976v1.238h-1.976c0.007,0.494,0.105,0.93,0.298,1.305
							c0.194,0.381,0.45,0.664,0.776,0.855c0.276,0.166,0.574,0.258,0.901,0.283v1.445c-1.293-0.043-2.305-0.441-3.036-1.195
							c-0.775-0.797-1.166-1.877-1.166-3.242c0-0.647,0.094-1.242,0.288-1.797c0.191-0.547,0.47-1.021,0.837-1.414
							c0.366-0.393,0.817-0.695,1.358-0.904c0.515-0.205,1.086-0.307,1.719-0.314v1.516h-0.006c-0.543,0-0.989,0.185-1.338,0.557
							C433.226,755.435,433.015,755.99,432.94,756.725"/>
						<path style="fill-rule:evenodd;clip-rule:evenodd;fill:#91A2AA;" d="M444.627,756.725h1.972
							c-0.054-0.742-0.256-1.301-0.599-1.668c-0.351-0.369-0.806-0.557-1.373-0.557v-1.516h0.063c0.856,0,1.584,0.176,2.193,0.541
							c0.608,0.357,1.067,0.82,1.372,1.389c0.302,0.566,0.451,1.148,0.451,1.74c0,0.545-0.159,0.904-0.474,1.065
							c-0.311,0.164-0.75,0.244-1.319,0.244h-2.287V756.725z M444.627,761.852v-1.445c0.052,0.002,0.104,0.004,0.164,0.004
							c0.257,0,0.494-0.029,0.709-0.09c0.216-0.059,0.429-0.156,0.627-0.287c0.205-0.133,0.39-0.271,0.563-0.42
							c0.17-0.148,0.392-0.35,0.662-0.603c0.111-0.098,0.267-0.148,0.476-0.148c0.222,0,0.405,0.063,0.549,0.186
							c0.13,0.121,0.201,0.297,0.201,0.518c0,0.197-0.072,0.426-0.229,0.691c-0.154,0.264-0.388,0.517-0.701,0.758
							c-0.31,0.242-0.698,0.441-1.172,0.605c-0.472,0.156-1.013,0.234-1.623,0.234C444.776,761.854,444.701,761.854,444.627,761.852
							 M442.651,756.725h1.976v1.238h-1.976c0.005,0.494,0.105,0.93,0.298,1.305c0.192,0.381,0.457,0.664,0.774,0.855
							c0.278,0.166,0.578,0.258,0.903,0.283v1.445c-1.291-0.043-2.299-0.441-3.037-1.195c-0.778-0.797-1.165-1.877-1.165-3.242
							c0-0.647,0.098-1.242,0.284-1.797c0.194-0.547,0.474-1.021,0.839-1.414c0.364-0.393,0.821-0.695,1.36-0.904
							c0.519-0.205,1.092-0.309,1.719-0.314v1.516h-0.008c-0.539,0-0.987,0.185-1.336,0.557
							C442.936,755.435,442.72,755.99,442.651,756.725"/>
						<path style="fill-rule:evenodd;clip-rule:evenodd;fill:#91A2AA;" d="M456.604,757.389c0-0.576-0.084-1.07-0.264-1.48
							c-0.175-0.414-0.416-0.732-0.726-0.947c-0.311-0.225-0.656-0.332-1.033-0.332h-0.06v-1.564
							c0.188-0.033,0.388-0.049,0.595-0.049c0.668,0,1.282,0.174,1.851,0.52c0.564,0.348,1.008,0.85,1.334,1.516
							c0.326,0.664,0.489,1.449,0.489,2.363c0,0.668-0.096,1.281-0.282,1.844c-0.186,0.561-0.445,1.035-0.777,1.412
							c-0.334,0.379-0.721,0.676-1.166,0.881c-0.452,0.203-0.936,0.303-1.448,0.303c-0.211,0-0.408-0.012-0.595-0.041v-1.639h0.06
							c0.363,0,0.692-0.105,1.003-0.318c0.309-0.211,0.559-0.52,0.743-0.943C456.511,758.49,456.604,757.984,456.604,757.389
							 M454.522,754.629c-0.575,0.014-1.062,0.248-1.461,0.709c-0.414,0.471-0.623,1.17-0.623,2.092
							c0,0.863,0.209,1.537,0.619,2.018c0.394,0.471,0.886,0.709,1.465,0.727v1.639c-0.37-0.057-0.696-0.164-0.975-0.334
							c-0.425-0.246-0.826-0.611-1.213-1.098v3.271c0,0.959-0.347,1.434-1.039,1.434c-0.412,0-0.683-0.123-0.818-0.371
							c-0.135-0.244-0.196-0.607-0.196-1.08v-9.402c0-0.412,0.092-0.725,0.268-0.926c0.18-0.205,0.426-0.307,0.746-0.307
							c0.305,0,0.559,0.102,0.748,0.313c0.198,0.212,0.291,0.514,0.291,0.904v0.266c0.418-0.504,0.84-0.879,1.28-1.115
							c0.278-0.146,0.582-0.25,0.907-0.303V754.629z"/>
						<path style="fill-rule:evenodd;clip-rule:evenodd;fill:#91A2AA;" d="M462.722,754.232v6.299c0,0.438-0.107,0.766-0.315,0.99
							c-0.207,0.223-0.469,0.332-0.789,0.332c-0.321,0-0.575-0.111-0.778-0.34c-0.199-0.23-0.297-0.559-0.297-0.982V754.3
							c0-0.429,0.098-0.757,0.297-0.972c0.203-0.219,0.457-0.328,0.778-0.328c0.32,0,0.582,0.109,0.789,0.328
							C462.615,753.543,462.722,753.846,462.722,754.232 M461.644,751.986c-0.307,0-0.569-0.096-0.78-0.279
							c-0.211-0.188-0.321-0.451-0.321-0.789c0-0.311,0.11-0.566,0.332-0.766c0.217-0.201,0.475-0.297,0.77-0.297
							c0.279,0,0.531,0.088,0.753,0.269c0.213,0.184,0.325,0.447,0.325,0.793c0,0.334-0.108,0.594-0.323,0.785
							C462.188,751.889,461.935,751.986,461.644,751.986"/>
						<path style="fill-rule:evenodd;clip-rule:evenodd;fill:#91A2AA;" d="M470.396,760.857l-1.925-3.16l-1.183,1.119v1.732
							c0,0.42-0.108,0.742-0.325,0.971c-0.226,0.225-0.478,0.334-0.763,0.334c-0.338,0-0.601-0.109-0.791-0.332
							c-0.194-0.225-0.289-0.553-0.289-0.99v-9.287c0-0.484,0.089-0.852,0.277-1.105c0.191-0.254,0.452-0.379,0.803-0.379
							c0.334,0,0.601,0.109,0.795,0.342c0.197,0.228,0.293,0.564,0.293,1.014v5.285l2.451-2.574
							c0.304-0.318,0.535-0.535,0.691-0.654c0.164-0.115,0.36-0.172,0.588-0.172c0.271,0,0.492,0.082,0.679,0.26
							c0.178,0.172,0.268,0.387,0.268,0.648c0,0.318-0.293,0.748-0.886,1.279l-1.153,1.059l2.229,3.512
							c0.172,0.262,0.289,0.461,0.356,0.594c0.074,0.137,0.108,0.267,0.108,0.385c0,0.348-0.092,0.619-0.284,0.824
							c-0.189,0.192-0.439,0.293-0.744,0.293c-0.267,0-0.472-0.068-0.617-0.211C470.835,761.498,470.642,761.232,470.396,760.857"/>
						<path style="fill-rule:evenodd;clip-rule:evenodd;fill:#91A2AA;" d="M475.779,761.854c-0.326,0-0.609-0.102-0.851-0.316
							c-0.24-0.211-0.363-0.512-0.363-0.896c0-0.324,0.119-0.604,0.345-0.838c0.231-0.232,0.515-0.348,0.848-0.348
							s0.621,0.115,0.857,0.346c0.235,0.232,0.355,0.508,0.355,0.84c0,0.379-0.119,0.68-0.355,0.893
							C476.379,761.752,476.101,761.854,475.779,761.854"/>
						<path style="fill-rule:evenodd;clip-rule:evenodd;fill:#91A2AA;" d="M487.268,759.158c0,0.273-0.087,0.561-0.248,0.871
							c-0.16,0.31-0.408,0.602-0.738,0.883c-0.33,0.279-0.756,0.504-1.256,0.67c-0.504,0.172-1.078,0.256-1.711,0.256
							c-1.349,0-2.394-0.393-3.151-1.176c-0.753-0.781-1.134-1.834-1.134-3.152c0-0.9,0.175-1.688,0.52-2.375
							c0.34-0.684,0.847-1.215,1.5-1.588c0.653-0.377,1.435-0.563,2.347-0.563c0.562,0,1.077,0.08,1.551,0.246
							c0.472,0.166,0.869,0.373,1.197,0.641c0.325,0.256,0.577,0.537,0.75,0.832c0.172,0.297,0.26,0.57,0.26,0.826
							c0,0.262-0.101,0.482-0.295,0.664c-0.192,0.184-0.427,0.267-0.701,0.267c-0.186,0-0.338-0.047-0.455-0.139
							c-0.118-0.092-0.254-0.24-0.401-0.453c-0.267-0.399-0.545-0.705-0.834-0.906c-0.289-0.203-0.66-0.303-1.104-0.303
							c-0.644,0-1.158,0.25-1.556,0.752c-0.395,0.504-0.594,1.188-0.594,2.063c0,0.41,0.047,0.787,0.153,1.133
							c0.099,0.338,0.248,0.631,0.44,0.875c0.189,0.237,0.423,0.426,0.693,0.551c0.268,0.123,0.573,0.187,0.895,0.187
							c0.43,0,0.808-0.103,1.118-0.302c0.314-0.205,0.584-0.508,0.828-0.928c0.129-0.244,0.278-0.436,0.435-0.574
							c0.15-0.137,0.336-0.205,0.562-0.205c0.27,0,0.487,0.1,0.662,0.303C487.175,758.717,487.268,758.934,487.268,759.158"/>
						<path style="fill-rule:evenodd;clip-rule:evenodd;fill:#91A2AA;" d="M495.134,757.43c0-0.889-0.199-1.582-0.588-2.076
							c-0.386-0.492-0.906-0.74-1.565-0.744V753c0.66,0.002,1.25,0.111,1.783,0.316c0.537,0.213,0.998,0.516,1.383,0.91
							c0.384,0.396,0.671,0.863,0.871,1.406c0.201,0.543,0.3,1.141,0.3,1.797c0,0.645-0.099,1.246-0.3,1.787
							c-0.207,0.555-0.504,1.025-0.883,1.416c-0.379,0.393-0.84,0.697-1.371,0.91c-0.528,0.209-1.123,0.31-1.783,0.31v-1.621
							c0.658-0.004,1.179-0.248,1.565-0.746C494.935,758.99,495.134,758.303,495.134,757.43 M492.981,754.609l-0.014-0.002
							c-0.423,0-0.8,0.111-1.125,0.332c-0.32,0.225-0.572,0.549-0.752,0.977c-0.172,0.436-0.261,0.94-0.261,1.514
							c0,0.568,0.086,1.066,0.261,1.492c0.172,0.424,0.42,0.748,0.741,0.975c0.322,0.227,0.701,0.336,1.136,0.336h0.014v1.621
							h-0.014c-0.654,0-1.25-0.102-1.781-0.316c-0.522-0.211-0.976-0.518-1.366-0.914c-0.384-0.396-0.679-0.865-0.871-1.406
							c-0.205-0.539-0.306-1.135-0.306-1.787c0-0.662,0.1-1.266,0.311-1.816c0.195-0.545,0.483-1.016,0.863-1.402
							c0.377-0.387,0.836-0.685,1.368-0.898c0.543-0.211,1.132-0.313,1.781-0.313h0.014V754.609z"/>
						<path style="fill-rule:evenodd;clip-rule:evenodd;fill:#91A2AA;" d="M506.28,757.588v2.893c0,0.457-0.103,0.803-0.313,1.033
							c-0.204,0.229-0.483,0.34-0.823,0.34c-0.328,0-0.593-0.111-0.799-0.34c-0.205-0.23-0.308-0.576-0.308-1.033v-3.471
							c0-0.549-0.02-0.967-0.058-1.273c-0.035-0.305-0.137-0.553-0.304-0.744c-0.163-0.199-0.424-0.289-0.782-0.289
							c-0.709,0-1.179,0.24-1.401,0.728c-0.228,0.49-0.341,1.191-0.341,2.108v2.941c0,0.455-0.107,0.793-0.31,1.027
							c-0.202,0.232-0.475,0.346-0.812,0.346c-0.327,0-0.598-0.113-0.811-0.346c-0.21-0.234-0.314-0.572-0.314-1.027v-6.231
							c0-0.408,0.095-0.721,0.285-0.934c0.19-0.207,0.437-0.316,0.742-0.316c0.301,0,0.551,0.1,0.748,0.299
							c0.202,0.197,0.301,0.475,0.301,0.826v0.205c0.377-0.447,0.779-0.783,1.211-0.996c0.435-0.211,0.91-0.318,1.439-0.318
							c0.546,0,1.018,0.107,1.41,0.326c0.394,0.217,0.722,0.549,0.974,0.988c0.371-0.445,0.764-0.779,1.184-0.994
							c0.419-0.213,0.886-0.32,1.398-0.32c0.594,0,1.106,0.117,1.538,0.348c0.431,0.24,0.751,0.572,0.96,1.004
							c0.19,0.396,0.284,1.02,0.284,1.863v4.25c0,0.457-0.11,0.803-0.315,1.033c-0.203,0.229-0.474,0.34-0.819,0.34
							c-0.326,0-0.597-0.113-0.808-0.346c-0.211-0.234-0.315-0.572-0.315-1.027v-3.662c0-0.463-0.021-0.84-0.061-1.127
							c-0.041-0.279-0.146-0.516-0.324-0.705c-0.174-0.193-0.44-0.283-0.799-0.283c-0.285,0-0.554,0.082-0.814,0.25
							c-0.256,0.17-0.457,0.4-0.606,0.689C506.358,756.008,506.28,756.654,506.28,757.588"/>
						<path style="fill-rule:evenodd;clip-rule:evenodd;fill:#91A2AA;" d="M401.588,747.383c-0.046-0.143-0.093-0.279-0.138-0.418
							c0.729-0.068,1.222-0.945,0.864-1.594c-0.172-0.389-0.575-0.598-0.975-0.605h-0.046c-0.342,0.006-0.674,0.152-0.87,0.457
							c-0.466,0.588-0.103,1.529,0.612,1.721c0.043,0.146,0.086,0.297,0.131,0.453c-1.098,0.072-2.217,0.314-3.137,0.941
							c0.094,0.262,0.189,0.531,0.284,0.803c1.857-0.818,3.938-0.643,5.896-0.446c0.066-0.257,0.13-0.517,0.197-0.774
							C403.521,747.521,402.551,747.375,401.588,747.383"/>
						<path style="fill-rule:evenodd;clip-rule:evenodd;fill:#91A2AA;" d="M412.625,750.379c-0.289,0.148-0.347,0.504-0.326,0.797
							c-0.33,0.32-0.174,0.799-0.209,1.197c-0.076,0.223-0.343,0.248-0.527,0.33c-0.256-0.388-0.53-0.764-0.875-1.082l0.001-0.019
							c-0.371-0.35-0.775-0.672-1.205-0.947c-0.341,0.369-0.703,0.732-1.031,1.113c0.651,0.717,1.257,1.49,1.791,2.301
							c0.369,0.619,0.666,1.279,0.918,1.951c0.554-0.283,1.099-0.579,1.652-0.871c-0.291-0.672-0.625-1.328-0.978-1.977
							c0.243-0.129,0.571-0.256,0.61-0.576c0.026-0.352-0.052-0.734,0.158-1.043c0.428,0.279,1.075-0.033,1.081-0.555
							C413.743,750.461,413.067,750.078,412.625,750.379"/>
						<path style="fill-rule:evenodd;clip-rule:evenodd;fill:#91A2AA;" d="M408.298,754.846c-0.128,0.896-0.984,1.656-1.9,1.602
							v3.596c1.683-0.451,3.31-1.117,4.813-1.998c0,0-0.319-1.75-1.567-3.66c-0.721-1.193-1.496-2.381-2.556-3.301
							c-0.217-0.192-0.452-0.371-0.69-0.541v2.078c0.231,0.008,0.461,0.049,0.685,0.102
							C407.922,753.021,408.472,753.973,408.298,754.846 M406.397,756.447h-0.008c-0.529,0.043-1.039-0.209-1.399-0.582
							c-0.263-0.322-0.476-0.693-0.511-1.113c-0.125-0.912,0.518-1.854,1.41-2.067c0.166-0.051,0.336-0.068,0.508-0.064v-2.078
							c-1.103-0.77-2.418-1.258-3.768-1.25c-1.666-0.02-3.352,0.191-4.938,0.703v1.977c0.295,0,0.588,0.041,0.871,0.121
							c0.32,0.082,0.615,0.23,0.889,0.414c0.566,0.4,0.995,0.994,1.182,1.666c0.264,0.859,0.096,1.824-0.404,2.566
							c-0.363,0.523-0.879,0.932-1.473,1.16c-0.337,0.127-0.701,0.188-1.064,0.188v2.666l0.086,0.006
							c1.945,0.059,3.908,0.107,5.845-0.166c0.933-0.121,1.862-0.307,2.775-0.551V756.447z M397.692,749.996v1.977
							c-0.502-0.002-1,0.115-1.444,0.352c-0.921,0.494-1.569,1.473-1.612,2.521c-0.063,0.84,0.272,1.674,0.832,2.295
							c0.563,0.621,1.395,0.947,2.225,0.947v2.666c-1.947-0.098-3.865-0.52-5.752-0.992c-0.346-1.748-0.356-3.641,0.412-5.285
							c0.793-1.826,2.363-3.244,4.172-4.039C396.907,750.271,397.298,750.125,397.692,749.996"/>
						<path style="fill-rule:evenodd;clip-rule:evenodd;fill:#91A2AA;" d="M392.374,751.719c-0.776,0.471-1.416,1.133-1.951,1.861
							c-0.155-0.289-0.202-0.635-0.403-0.893c-0.118-0.154-0.325-0.092-0.487-0.094c-0.207,0.021-0.408-0.035-0.601-0.094
							c0.228-0.322,0.166-0.81-0.184-1.019c-0.371-0.27-0.946-0.035-1.045,0.408c-0.158,0.484,0.36,0.971,0.836,0.844
							c0.252,0.377,0.709,0.314,1.101,0.326c0.173,0.306,0.306,0.64,0.53,0.914c-0.418,0.82-0.651,1.742-0.67,2.666
							c0.533,0.223,1.068,0.453,1.609,0.676c0.023-0.586,0.092-1.162,0.18-1.733c0.181-1.252,0.902-2.338,1.76-3.234
							C392.835,752.125,392.6,751.932,392.374,751.719"/>
						<path style="fill-rule:evenodd;clip-rule:evenodd;fill:#91A2AA;" d="M404.894,761.143c-1.973,0.432-4.01,0.557-6.026,0.469
							c-1.364-0.07-2.729-0.195-4.061-0.489c-0.945-0.194-1.871-0.468-2.799-0.733c0.147,1.188,0.629,2.322,1.313,3.299
							c0.809,1.141,1.891,2.182,3.238,2.604c0.982,0.264,2.147,0.602,4.065,0.609h0.195l0.198-0.004
							c1.783-0.029,3.539-0.258,5.102-0.924c1.009-0.432,1.959-1.025,2.771-1.766c0.703-0.662,1.252-1.486,1.636-2.378
							c0.366-0.832,0.696-2.343,0.662-3.11C409.255,759.818,407.095,760.773,404.894,761.143"/>
					</g>
				</g>
			</g>
		</g>
	</g>
	<g>
		<g id="logo">
			<g>
				
					<linearGradient id="SVGID_00000183250371392580627920000009768921057299087757_" gradientUnits="userSpaceOnUse" x1="258.9805" y1="326.9771" x2="397.8184" y2="326.9771">
					<stop  offset="0" style="stop-color:#08AC1C"/>
					<stop  offset="0.4835" style="stop-color:#12B1B9"/>
					<stop  offset="0.5539" style="stop-color:#12ABB8"/>
					<stop  offset="0.6459" style="stop-color:#109BB4"/>
					<stop  offset="0.7499" style="stop-color:#0F80AD"/>
					<stop  offset="0.8627" style="stop-color:#0C5AA4"/>
					<stop  offset="0.9814" style="stop-color:#092A99"/>
					<stop  offset="1" style="stop-color:#082297"/>
				</linearGradient>
				<path style="opacity:0.9;fill:url(#SVGID_00000183250371392580627920000009768921057299087757_);" d="M397.818,320.013v-109.58
					c0,13.927-12.373,37.968-73.465,61.754c-58.261,22.683-65.372,61.754-65.372,61.754v109.581c0,0,7.111-39.071,65.372-61.754
					C385.445,357.98,397.818,333.941,397.818,320.013z"/>
				
					<linearGradient id="SVGID_00000145742989605528846800000005855752376838230438_" gradientUnits="userSpaceOnUse" x1="222.072" y1="409.6855" x2="390.546" y2="409.6855">
					<stop  offset="0" style="stop-color:#8FAB0B"/>
					<stop  offset="0.0324" style="stop-color:#9BAE0A"/>
					<stop  offset="0.1636" style="stop-color:#C6B806"/>
					<stop  offset="0.2816" style="stop-color:#E5C003"/>
					<stop  offset="0.3813" style="stop-color:#F8C401"/>
					<stop  offset="0.4505" style="stop-color:#FFC600"/>
					<stop  offset="0.5066" style="stop-color:#FAC400"/>
					<stop  offset="0.5746" style="stop-color:#EBBE02"/>
					<stop  offset="0.6487" style="stop-color:#D2B404"/>
					<stop  offset="0.7272" style="stop-color:#B0A607"/>
					<stop  offset="0.8093" style="stop-color:#84950B"/>
					<stop  offset="0.8942" style="stop-color:#4E7F0F"/>
					<stop  offset="0.98" style="stop-color:#106615"/>
					<stop  offset="1" style="stop-color:#006016"/>
				</linearGradient>
				<path style="opacity:0.9;fill:url(#SVGID_00000145742989605528846800000005855752376838230438_);" d="M258.981,375.857v67.656
					c0,0,0.001-0.003,0.001-0.004c0.057-0.302,2.871-15.018,18.44-31.554C265.073,398.775,258.981,384.241,258.981,375.857z"/>
				<g style="opacity:0.9;">
					
						<linearGradient id="SVGID_00000083780688527011875520000013833253118469305506_" gradientUnits="userSpaceOnUse" x1="259.76" y1="518.7402" x2="409.7498" y2="518.7402">
						<stop  offset="0" style="stop-color:#8FAB0B"/>
						<stop  offset="0.0324" style="stop-color:#9BAE0A"/>
						<stop  offset="0.1636" style="stop-color:#C6B806"/>
						<stop  offset="0.2816" style="stop-color:#E5C003"/>
						<stop  offset="0.3813" style="stop-color:#F8C401"/>
						<stop  offset="0.4505" style="stop-color:#FFC600"/>
						<stop  offset="0.5066" style="stop-color:#FAC400"/>
						<stop  offset="0.5746" style="stop-color:#EBBE02"/>
						<stop  offset="0.6487" style="stop-color:#D2B404"/>
						<stop  offset="0.7272" style="stop-color:#B0A607"/>
						<stop  offset="0.8093" style="stop-color:#84950B"/>
						<stop  offset="0.8942" style="stop-color:#4E7F0F"/>
						<stop  offset="0.98" style="stop-color:#106615"/>
						<stop  offset="1" style="stop-color:#006016"/>
					</linearGradient>
					<path style="opacity:0.9;fill:url(#SVGID_00000083780688527011875520000013833253118469305506_);" d="M332.446,446.235
						c-26.63-11.816-42.115-21.881-53.241-32.828c-5.485,6.724-16.103,18.907-20.224,38.95v30.961
						c0,15.873,12.372,43.269,73.465,70.377c58.261,25.852,65.372,70.378,65.372,70.378v-107.46
						C397.818,516.613,390.707,472.086,332.446,446.235z"/>
				</g>
			</g>
			<g>
				
					<linearGradient id="SVGID_00000175287523064236073130000007362499972934548395_" gradientUnits="userSpaceOnUse" x1="469.2637" y1="347.1118" x2="608.1016" y2="347.1118" gradientTransform="matrix(-1 0 0 -1 1010.2832 854.6406)">
					<stop  offset="0" style="stop-color:#08AC1C"/>
					<stop  offset="0.4835" style="stop-color:#12B1B9"/>
					<stop  offset="0.5539" style="stop-color:#12ABB8"/>
					<stop  offset="0.6459" style="stop-color:#109BB4"/>
					<stop  offset="0.7499" style="stop-color:#0F80AD"/>
					<stop  offset="0.8627" style="stop-color:#0C5AA4"/>
					<stop  offset="0.9814" style="stop-color:#092A99"/>
					<stop  offset="1" style="stop-color:#082297"/>
				</linearGradient>
				<path style="opacity:0.9;fill:url(#SVGID_00000175287523064236073130000007362499972934548395_);" d="M402.182,514.493v109.58
					c0-13.926,12.373-37.968,73.465-61.754c58.262-22.683,65.373-61.755,65.373-61.755v-109.58c0,0-7.111,39.071-65.373,61.754
					C414.555,476.526,402.182,500.565,402.182,514.493z"/>
				
					<linearGradient id="SVGID_00000021835782055348896090000013718999611959120794_" gradientUnits="userSpaceOnUse" x1="432.3553" y1="429.8207" x2="600.8292" y2="429.8207" gradientTransform="matrix(-1 0 0 -1 1010.2832 854.6406)">
					<stop  offset="0" style="stop-color:#8FAB0B"/>
					<stop  offset="0.0324" style="stop-color:#9BAE0A"/>
					<stop  offset="0.1636" style="stop-color:#C6B806"/>
					<stop  offset="0.2816" style="stop-color:#E5C003"/>
					<stop  offset="0.3813" style="stop-color:#F8C401"/>
					<stop  offset="0.4505" style="stop-color:#FFC600"/>
					<stop  offset="0.5066" style="stop-color:#FAC400"/>
					<stop  offset="0.5746" style="stop-color:#EBBE02"/>
					<stop  offset="0.6487" style="stop-color:#D2B404"/>
					<stop  offset="0.7272" style="stop-color:#B0A607"/>
					<stop  offset="0.8093" style="stop-color:#84950B"/>
					<stop  offset="0.8942" style="stop-color:#4E7F0F"/>
					<stop  offset="0.98" style="stop-color:#106615"/>
					<stop  offset="1" style="stop-color:#006016"/>
				</linearGradient>
				<path style="opacity:0.9;fill:url(#SVGID_00000021835782055348896090000013718999611959120794_);" d="M541.019,458.647v-67.655
					c0,0-0.001,0.003-0.001,0.004c-0.057,0.302-2.871,15.018-18.44,31.554C534.927,435.73,541.019,450.266,541.019,458.647z"/>
				<g style="opacity:0.9;">
					
						<linearGradient id="SVGID_00000072266368689669227460000011821730454454699673_" gradientUnits="userSpaceOnUse" x1="470.0432" y1="538.875" x2="620.033" y2="538.875" gradientTransform="matrix(-1 0 0 -1 1010.2832 854.6406)">
						<stop  offset="0" style="stop-color:#8FAB0B"/>
						<stop  offset="0.0324" style="stop-color:#9BAE0A"/>
						<stop  offset="0.1636" style="stop-color:#C6B806"/>
						<stop  offset="0.2816" style="stop-color:#E5C003"/>
						<stop  offset="0.3813" style="stop-color:#F8C401"/>
						<stop  offset="0.4505" style="stop-color:#FFC600"/>
						<stop  offset="0.5066" style="stop-color:#FAC400"/>
						<stop  offset="0.5746" style="stop-color:#EBBE02"/>
						<stop  offset="0.6487" style="stop-color:#D2B404"/>
						<stop  offset="0.7272" style="stop-color:#B0A607"/>
						<stop  offset="0.8093" style="stop-color:#84950B"/>
						<stop  offset="0.8942" style="stop-color:#4E7F0F"/>
						<stop  offset="0.98" style="stop-color:#106615"/>
						<stop  offset="1" style="stop-color:#006016"/>
					</linearGradient>
					<path style="opacity:0.9;fill:url(#SVGID_00000072266368689669227460000011821730454454699673_);" d="M467.554,388.271
						c26.63,11.816,42.114,21.88,53.241,32.828c5.484-6.724,16.102-18.907,20.224-38.95v-30.961
						c0-15.873-12.372-43.27-73.465-70.378c-58.261-25.851-65.372-70.378-65.372-70.378v107.46
						C402.182,317.893,409.293,362.42,467.554,388.271z"/>
				</g>
			</g>
		</g>
		
			<radialGradient id="shadow_00000160894303811708698950000002809378339807530384_" cx="422.718" cy="954.6992" r="178.5593" gradientTransform="matrix(1.1238 0 0 0.1318 -75.0505 512.415)" gradientUnits="userSpaceOnUse">
			<stop  offset="0" style="stop-color:#231F20"/>
			<stop  offset="0.0896" style="stop-color:#231F20;stop-opacity:0.9104"/>
			<stop  offset="1" style="stop-color:#231F20;stop-opacity:0"/>
		</radialGradient>
		<path id="shadow" style="opacity:0.4;fill:url(#shadow_00000160894303811708698950000002809378339807530384_);" d="
			M593.061,638.278c0-14.021-86.435-25.386-193.061-25.386s-193.062,11.365-193.062,25.386c0,14.019,86.436,25.384,193.062,25.384
			S593.061,652.297,593.061,638.278z"/>
	</g>
</g>
</svg>
